<svg width="27" height="27" viewBox="0 0 27 27" fill="none" xmlns="http://www.w3.org/2000/svg">
<g clip-path="url(#clip0)">
<path d="M26.7185 7.02109C26.7179 7.02052 26.7173 7.01996 26.7168 7.01934L26.7158 7.0203L22.8588 3.16324C22.4757 2.79329 21.8653 2.80391 21.4953 3.18697C21.1344 3.56066 21.1344 4.15306 21.4953 4.52675L23.7073 6.73876H18.321C14.595 6.743 11.5755 9.76251 11.5712 13.4886C11.568 16.15 9.4113 18.3067 6.74989 18.3099H0.964334C0.431713 18.3099 0 18.7416 0 19.2741C0 19.8067 0.431713 20.2384 0.964278 20.2384H6.74983C10.4759 20.2342 13.4954 17.2147 13.4997 13.4886C13.5028 10.8272 15.6595 8.67048 18.3209 8.66732H23.7073L21.4962 10.8784C21.1131 11.2483 21.1025 11.8588 21.4725 12.2418C21.8425 12.6249 22.453 12.6355 22.836 12.2655C22.844 12.2578 22.8519 12.2498 22.8597 12.2418L26.7167 8.38476C27.0938 8.00865 27.0945 7.39811 26.7185 7.02109Z" fill="white"/>
<path d="M26.7184 18.5923C26.7179 18.5918 26.7173 18.5912 26.7167 18.5906L26.7158 18.5916L22.8587 14.7345C22.4756 14.3646 21.8652 14.3752 21.4953 14.7583C21.1343 15.132 21.1343 15.7243 21.4953 16.098L23.7073 18.31H18.3209C17.1347 18.3108 15.9899 17.8738 15.1061 17.0825C14.7061 16.7309 14.0968 16.7703 13.7453 17.1703C13.3984 17.5652 13.4315 18.165 13.8198 18.5192C15.057 19.6274 16.66 20.2397 18.3209 20.2385H23.7073L21.4962 22.4496C21.1132 22.8195 21.1025 23.4299 21.4725 23.813C21.8425 24.1961 22.4529 24.2067 22.8359 23.8367C22.844 23.8289 22.8519 23.8211 22.8597 23.813L26.7167 19.9559C27.0937 19.5799 27.0945 18.9693 26.7184 18.5923Z" fill="white"/>
<path d="M11.251 8.45805C10.0138 7.34987 8.4108 6.73758 6.74983 6.73877H0.964278C0.431713 6.73877 0 7.17048 0 7.70305C0 8.23561 0.431713 8.66733 0.964278 8.66733H6.74983C7.93609 8.66648 9.08089 9.10356 9.96465 9.89483C10.3647 10.2464 10.974 10.207 11.3255 9.80698C11.6724 9.4121 11.6392 8.81225 11.251 8.45805Z" fill="white"/>
</g>
<defs>
<clipPath id="clip0">
<rect width="27" height="27" fill="white"/>
</clipPath>
</defs>
</svg>
